<?xml version="1.0" encoding="iso-8859-1"?>
<!-- Generator: Adobe Illustrator 21.0.0, SVG Export Plug-In . SVG Version: 6.00 Build 0)  -->
<svg version="1.1" id="&#x56FE;&#x5C42;_1" xmlns="http://www.w3.org/2000/svg" xmlns:xlink="http://www.w3.org/1999/xlink" x="0px"
	 y="0px" viewBox="0 0 140 140" style="enable-background:new 0 0 140 140;" xml:space="preserve">
<g>
	<g>
		<path style="fill:#FDA203;" d="M70,103.706c-9.582,0-17.378-7.796-17.378-17.378S60.418,68.95,70,68.95
			s17.378,7.796,17.378,17.378S79.582,103.706,70,103.706z M70,81.706c-2.549,0-4.622,2.073-4.622,4.622S67.451,90.95,70,90.95
			s4.622-2.073,4.622-4.622S72.549,81.706,70,81.706z"/>
	</g>
	<g>
		<path style="fill:#FDA203;" d="M94.211,134.695H45.789c-13.442,0-24.378-10.936-24.378-24.378V72.055
			c0-13.442,10.936-24.378,24.378-24.378h48.422c13.442,0,24.378,10.936,24.378,24.378v38.263
			C118.589,123.76,107.653,134.695,94.211,134.695z M45.789,60.433c-6.408,0-11.622,5.214-11.622,11.622v38.263
			c0,6.408,5.214,11.622,11.622,11.622h48.422c6.408,0,11.622-5.214,11.622-11.622V72.055c0-6.408-5.214-11.622-11.622-11.622
			H45.789z"/>
	</g>
	<g>
		<path style="fill:#FDA203;" d="M44.868,59.716c-3.522,0-6.378-2.855-6.378-6.378V37.593c0-17.804,14.484-32.288,32.289-32.288
			c13.501,0,25.694,8.548,30.343,21.271c1.209,3.309-0.493,6.971-3.802,8.179c-3.308,1.213-6.971-0.493-8.179-3.802
			c-2.817-7.711-10.197-12.892-18.362-12.892c-10.771,0-19.533,8.762-19.533,19.532v15.745
			C51.246,56.86,48.391,59.716,44.868,59.716z"/>
	</g>
	<g>
		<path style="fill:#FDA203;" d="M70,113.422c-3.522,0-6.378-2.855-6.378-6.378v-7.789c0-3.522,2.855-6.378,6.378-6.378
			s6.378,2.855,6.378,6.378v7.789C76.378,110.566,73.522,113.422,70,113.422z"/>
	</g>
</g>
</svg>
