<?xml version="1.0" encoding="iso-8859-1"?>
<!-- Generator: Adobe Illustrator 21.0.0, SVG Export Plug-In . SVG Version: 6.00 Build 0)  -->
<svg version="1.1" id="&#x56FE;&#x5C42;_1" xmlns="http://www.w3.org/2000/svg" xmlns:xlink="http://www.w3.org/1999/xlink" x="0px"
	 y="0px" viewBox="0 0 140 140" style="enable-background:new 0 0 140 140;" xml:space="preserve">
<g>
	<g>
		<path style="fill:#FDA203;" d="M70.694,82.967c-21.329,0-38.682-17.353-38.682-38.681c0-21.329,17.353-38.682,38.682-38.682
			c21.328,0,38.681,17.353,38.681,38.682C109.375,65.614,92.022,82.967,70.694,82.967z M70.694,18.36
			c-14.296,0-25.926,11.63-25.926,25.926c0,14.295,11.63,25.925,25.926,25.925c14.295,0,25.925-11.63,25.925-25.925
			C96.619,29.99,84.989,18.36,70.694,18.36z"/>
	</g>
	<g>
		<path style="fill:#FDA203;" d="M19.266,134.396c-3.522,0-6.378-2.855-6.378-6.378c0-31.875,25.932-57.807,57.807-57.807
			c12.593,0,24.564,3.979,34.619,11.509c2.819,2.111,3.394,6.109,1.282,8.929c-2.112,2.819-6.109,3.393-8.929,1.282
			c-7.831-5.864-17.157-8.964-26.973-8.964c-24.841,0-45.051,20.21-45.051,45.051C25.644,131.54,22.788,134.396,19.266,134.396z"/>
	</g>
	<g>
		<path style="fill:#FDA203;" d="M120.734,113.524H70.708c-3.522,0-6.378-2.855-6.378-6.378s2.855-6.378,6.378-6.378h50.026
			c3.522,0,6.378,2.855,6.378,6.378S124.257,113.524,120.734,113.524z"/>
	</g>
	<g>
		<path style="fill:#FDA203;" d="M120.734,134.396H70.708c-3.522,0-6.378-2.855-6.378-6.378s2.855-6.378,6.378-6.378h50.026
			c3.522,0,6.378,2.855,6.378,6.378S124.257,134.396,120.734,134.396z"/>
	</g>
</g>
</svg>
