<?xml version="1.0" encoding="iso-8859-1"?>
<!-- Generator: Adobe Illustrator 21.0.0, SVG Export Plug-In . SVG Version: 6.00 Build 0)  -->
<svg version="1.1" id="&#x56FE;&#x5C42;_1" xmlns="http://www.w3.org/2000/svg" xmlns:xlink="http://www.w3.org/1999/xlink" x="0px"
	 y="0px" viewBox="0 0 80 80" style="enable-background:new 0 0 80 80;" xml:space="preserve">
<path style="fill:#FFFFFF;" d="M64.794,64.6c-0.609,0.457-1.32,0.686-2.133,0.686c-1.016,0-1.892-0.368-2.628-1.105
	c-0.736-0.736-1.105-1.613-1.105-2.628c0-1.117,0.432-2.057,1.295-2.818c0.051-0.051,0.102-0.089,0.152-0.114
	c0.051-0.026,0.102-0.064,0.152-0.114l0.076-0.076c1.422-0.965,2.742-2.107,3.961-3.428c1.219-1.32,2.285-2.755,3.2-4.304
	c0.914-1.549,1.625-3.2,2.133-4.951c0.508-1.752,0.762-3.567,0.762-5.446c0-3.809-0.965-7.287-2.894-10.436
	c-1.93-3.149-4.342-5.738-7.237-7.77c-1.066-0.761-1.6-1.777-1.6-3.047c0-1.015,0.368-1.892,1.105-2.628
	c0.736-0.736,1.612-1.105,2.628-1.105c0.863,0,1.625,0.279,2.285,0.838c1.879,1.32,3.631,2.856,5.256,4.608
	c1.625,1.752,3.022,3.656,4.19,5.713c1.168,2.056,2.082,4.253,2.742,6.589c0.66,2.336,0.99,4.748,0.99,7.236
	c0,2.539-0.33,4.976-0.99,7.313c-0.66,2.336-1.587,4.545-2.781,6.627c-1.193,2.082-2.602,3.999-4.228,5.751
	C68.501,61.743,66.724,63.28,64.794,64.6L64.794,64.6z M60.529,30.398c1.067,1.472,1.917,2.958,2.552,4.456
	c0.635,1.498,0.952,3.313,0.952,5.446c0,2.031-0.33,3.859-0.99,5.484c-0.66,1.625-1.498,3.098-2.514,4.418
	c-0.406,0.559-0.838,1.054-1.295,1.486c-0.457,0.431-1.041,0.647-1.752,0.647c-0.914,0-1.689-0.33-2.323-0.99
	c-0.635-0.66-0.952-1.447-0.952-2.361c0-0.406,0.076-0.813,0.229-1.219h-0.077c0.254-0.559,0.559-1.092,0.914-1.6
	c0.356-0.508,0.698-1.028,1.028-1.562c0.33-0.533,0.609-1.143,0.838-1.828c0.228-0.686,0.343-1.511,0.343-2.476
	c0-0.914-0.114-1.714-0.343-2.4c-0.229-0.685-0.508-1.308-0.838-1.866c-0.33-0.559-0.673-1.092-1.028-1.6
	c-0.355-0.508-0.635-1.041-0.838-1.6c-0.153-0.355-0.229-0.762-0.229-1.218c0-0.914,0.318-1.701,0.952-2.362
	c0.635-0.66,1.409-0.99,2.323-0.99c0.711,0,1.295,0.216,1.752,0.647C59.691,29.344,60.122,29.84,60.529,30.398L60.529,30.398z
	 M35.925,75.645c-2.59-2.336-5.332-4.773-8.227-7.313c-2.894-2.539-5.586-4.875-8.074-7.008c-2.894-2.438-5.789-4.85-8.684-7.237
	c-0.559,0.051-1.117,0.076-1.676,0.076c-0.457,0.051-0.94,0.077-1.448,0.077H6.522c-1.371,0-2.488-0.419-3.351-1.257
	c-0.863-0.838-1.295-1.841-1.295-3.009V30.779h0.076l-0.076-0.076c0-1.422,0.444-2.59,1.333-3.504
	c0.889-0.914,1.993-1.371,3.313-1.371h4.342c4.672-3.961,8.912-7.516,12.721-10.664c1.625-1.371,3.225-2.704,4.799-3.999
	c1.574-1.295,2.996-2.476,4.266-3.542c1.269-1.066,2.336-1.955,3.199-2.666c0.863-0.711,1.396-1.142,1.6-1.295
	c1.523-1.117,2.755-1.625,3.695-1.523c0.939,0.102,1.676,0.559,2.209,1.371c0.533,0.813,0.902,1.803,1.105,2.971
	c0.203,1.168,0.305,2.234,0.305,3.199v61.7c0,0.965-0.178,1.993-0.533,3.085c-0.356,1.092-0.902,1.955-1.638,2.59
	c-0.736,0.635-1.663,0.901-2.78,0.8C38.692,77.753,37.397,77.016,35.925,75.645L35.925,75.645z M35.925,75.645"/>
</svg>
