<?xml version="1.0" encoding="iso-8859-1"?>
<!-- Generator: Adobe Illustrator 21.0.0, SVG Export Plug-In . SVG Version: 6.00 Build 0)  -->
<svg version="1.1" id="&#x56FE;&#x5C42;_1" xmlns="http://www.w3.org/2000/svg" xmlns:xlink="http://www.w3.org/1999/xlink" x="0px"
	 y="0px" viewBox="0 0 140 140" style="enable-background:new 0 0 140 140;" xml:space="preserve">
<g>
	<g>
		<path style="fill:#FDA203;" d="M70,138.543c-21.328,0-38.681-17.353-38.681-38.681S48.672,61.182,70,61.182
			c21.329,0,38.682,17.353,38.682,38.681S91.329,138.543,70,138.543z M70,73.938c-14.295,0-25.925,11.63-25.925,25.925
			S55.705,125.787,70,125.787c14.296,0,25.926-11.63,25.926-25.925S84.296,73.938,70,73.938z"/>
	</g>
	<g>
		<path style="fill:#FDA203;" d="M70,71.545c-3.522,0-6.378-2.855-6.378-6.378V7.835c0-3.522,2.855-6.378,6.378-6.378
			s6.378,2.855,6.378,6.378v57.332C76.378,68.689,73.522,71.545,70,71.545z"/>
	</g>
	<g>
		<path style="fill:#FDA203;" d="M92.179,26.06H75.242c-3.522,0-6.378-2.855-6.378-6.378s2.855-6.378,6.378-6.378h16.938
			c3.522,0,6.378,2.855,6.378,6.378S95.702,26.06,92.179,26.06z"/>
	</g>
	<g>
		<path style="fill:#FDA203;" d="M92.179,45.06H75.242c-3.522,0-6.378-2.855-6.378-6.378s2.855-6.378,6.378-6.378h16.938
			c3.522,0,6.378,2.855,6.378,6.378S95.702,45.06,92.179,45.06z"/>
	</g>
</g>
</svg>
