<?xml version="1.0" encoding="iso-8859-1"?>
<!-- Generator: Adobe Illustrator 21.0.0, SVG Export Plug-In . SVG Version: 6.00 Build 0)  -->
<svg version="1.1" id="&#x56FE;&#x5C42;_1" xmlns="http://www.w3.org/2000/svg" xmlns:xlink="http://www.w3.org/1999/xlink" x="0px"
	 y="0px" viewBox="0 0 80 80" style="enable-background:new 0 0 80 80;" xml:space="preserve">
<path style="fill:#FFFFFF;" d="M44.088,58.168L58.36,32.898V13.881c0-4.042-3.292-7.318-7.35-7.318H14.287
	c-4.105,0-7.428,3.284-7.428,7.349v51.423c0,4.057,3.332,7.349,7.428,7.349h29.066l-0.41-2.344
	c-0.237-1.082-1.058-4.058-0.789-6.836C42.375,61.175,43.63,59.004,44.088,58.168L44.088,58.168z M19.655,23.086h26.422
	c0.916,0,1.65,0.821,1.65,1.839c0,1.018-0.742,1.839-1.65,1.839H19.655c-0.916,0-1.65-0.821-1.65-1.839
	C17.997,23.907,18.739,23.086,19.655,23.086L19.655,23.086z M38.649,56.138H19.655c-0.916,0-1.65-0.821-1.65-1.839
	c0-1.018,0.742-1.839,1.65-1.839h18.993c0.916,0,1.65,0.821,1.65,1.839C40.298,55.317,39.556,56.138,38.649,56.138L38.649,56.138z
	 M19.655,41.448c-0.916,0-1.65-0.821-1.65-1.839c0-1.018,0.742-1.839,1.65-1.839h26.422c0.916,0,1.65,0.821,1.65,1.839
	c0,1.018-0.742,1.839-1.65,1.839H19.655z M71.063,40.889l-5.131-2.945c-0.955-0.592-2.147-0.71-3.221-0.355
	c-1.073,0.237-2.029,0.947-2.51,1.887l-12.875,21.93c-0.837,1.531-1.311,3.892-0.955,5.542l0.592,3.418
	c0.237,1.176,0.837,2.123,1.792,2.597c0.6,0.355,1.192,0.474,1.91,0.474c0.481,0,0.955-0.119,1.311-0.237l3.339-1.176
	c1.673-0.592,3.465-2.124,4.413-3.655L72.611,46.32C73.692,44.552,73.092,41.954,71.063,40.889L71.063,40.889z M70.296,40.121"/>
</svg>
