<?xml version="1.0" encoding="iso-8859-1"?>
<!-- Generator: Adobe Illustrator 21.0.0, SVG Export Plug-In . SVG Version: 6.00 Build 0)  -->
<svg version="1.1" id="&#x56FE;&#x5C42;_1" xmlns="http://www.w3.org/2000/svg" xmlns:xlink="http://www.w3.org/1999/xlink" x="0px"
	 y="0px" viewBox="0 0 140 140" style="enable-background:new 0 0 140 140;" xml:space="preserve">
<g>
	<g>
		<path style="fill:#FDA203;" d="M94,134.378H47.667c-13.442,0-24.378-10.936-24.378-24.378V30
			c0-13.442,10.936-24.378,24.378-24.378H94c13.442,0,24.378,10.936,24.378,24.378v80C118.378,123.442,107.442,134.378,94,134.378z
			 M47.667,18.378c-6.408,0-11.622,5.214-11.622,11.622v80c0,6.408,5.214,11.622,11.622,11.622H94
			c6.408,0,11.622-5.214,11.622-11.622V30c0-6.408-5.214-11.622-11.622-11.622H47.667z"/>
	</g>
	<g>
		<rect x="28" y="83.286" style="fill:#FDA203;" width="84" height="12.756"/>
	</g>
	<g>
		<path style="fill:#FDA203;" d="M78.165,115.461H63.168c-3.522,0-6.378-2.855-6.378-6.378s2.855-6.378,6.378-6.378h14.997
			c3.522,0,6.378,2.855,6.378,6.378S81.688,115.461,78.165,115.461z"/>
	</g>
</g>
</svg>
