<?xml version="1.0" encoding="iso-8859-1"?>
<!-- Generator: Adobe Illustrator 21.0.0, SVG Export Plug-In . SVG Version: 6.00 Build 0)  -->
<svg version="1.1" id="&#x56FE;&#x5C42;_1" xmlns="http://www.w3.org/2000/svg" xmlns:xlink="http://www.w3.org/1999/xlink" x="0px"
	 y="0px" viewBox="0 0 140 140" style="enable-background:new 0 0 140 140;" xml:space="preserve">
<g>
	<g>
		<path style="fill:#FDA203;" d="M15.868,130.584c-1.651,0-3.251-0.642-4.449-1.808c-1.4-1.364-2.099-3.294-1.894-5.238
			l4.251-40.373c0.156-1.488,0.832-2.874,1.907-3.915l66.641-64.506c3.457-3.437,8.056-5.328,12.955-5.328
			c4.918,0,9.533,1.906,12.995,5.368l16.866,16.866c3.462,3.462,5.368,8.077,5.368,12.995s-1.906,9.533-5.368,12.995L60.8,123.318
			c-0.997,1.018-2.306,1.673-3.718,1.859l-40.376,5.351C16.427,130.565,16.147,130.584,15.868,130.584z M26.22,86.805l-3.16,30.015
			l30.167-3.998l62.849-64.153c2.238-2.239,2.238-5.806,0.046-7.998L99.255,23.804c-1.053-1.053-2.465-1.632-3.976-1.632
			s-2.923,0.579-3.976,1.632c-0.024,0.024-0.049,0.049-0.074,0.073L26.22,86.805z"/>
	</g>
	<g>
		<path style="fill:#FDA203;" d="M54.7,125.439c-2.768,0-5.316-1.816-6.124-4.608C41.772,97.298,21.738,92.138,20.888,91.93
			c-3.407-0.835-5.519-4.269-4.704-7.681c0.816-3.411,4.218-5.53,7.632-4.734c1.143,0.267,28.079,6.871,37.014,37.773
			c0.979,3.384-0.972,6.92-4.355,7.898C55.882,125.357,55.285,125.439,54.7,125.439z"/>
	</g>
	<g>
		<path style="fill:#FDA203;" d="M80.787,71.604c-1.68,0-3.355-0.659-4.608-1.968c-2.436-2.545-2.348-6.582,0.197-9.018l17.5-16.75
			c2.544-2.437,6.582-2.347,9.018,0.197c2.436,2.545,2.348,6.582-0.197,9.018l-17.5,16.75
			C83.961,71.017,82.372,71.604,80.787,71.604z"/>
	</g>
</g>
</svg>
