<?xml version="1.0" encoding="iso-8859-1"?>
<!-- Generator: Adobe Illustrator 21.0.0, SVG Export Plug-In . SVG Version: 6.00 Build 0)  -->
<svg version="1.1" id="&#x56FE;&#x5C42;_1" xmlns="http://www.w3.org/2000/svg" xmlns:xlink="http://www.w3.org/1999/xlink" x="0px"
	 y="0px" viewBox="0 0 80 80" style="enable-background:new 0 0 80 80;" xml:space="preserve">
<path style="fill:#FFFFFF;" d="M56.056,61.892c-4.913,2.86-10.267,4.257-16.061,4.257c-5.794,0-11.214-1.397-16.126-4.257
	c-4.913-2.859-8.794-6.675-11.654-11.588c-2.859-4.913-4.322-10.192-4.322-15.985c0-5.794,1.463-11.073,4.322-15.986
	c2.86-4.913,6.741-8.729,11.654-11.588c4.913-2.859,10.341-4.257,16.126-4.257c5.794,0,11.147,1.397,16.061,4.257
	c4.913,2.859,8.869,6.676,11.729,11.588c2.86,4.913,4.323,10.192,4.323,15.986c0,5.794-1.463,11.072-4.323,15.985
	C64.925,55.226,60.969,59.033,56.056,61.892L56.056,61.892z M52.24,22.233c-3.375-3.375-7.482-5.063-12.244-5.063
	c-4.763,0-8.87,1.688-12.245,5.063c-3.375,3.3-5.063,7.332-5.063,12.095c0,4.763,1.688,8.794,5.063,12.095
	c3.375,3.3,7.482,4.988,12.245,4.988c4.763,0,8.869-1.688,12.244-4.988c3.375-3.3,5.063-7.332,5.063-12.095
	C57.303,29.565,55.615,25.533,52.24,22.233L52.24,22.233z M47.552,41.81c-2.128,2.053-4.622,3.075-7.556,3.075
	c-2.935,0-5.429-1.022-7.557-3.075c-2.128-2.053-3.15-4.547-3.15-7.482c0-2.934,1.022-5.429,3.15-7.482
	c2.128-2.119,4.622-3.15,7.557-3.15c2.934,0,5.428,1.022,7.556,3.15c2.128,2.053,3.151,4.547,3.151,7.482
	C50.702,37.262,49.671,39.756,47.552,41.81L47.552,41.81z M39.995,69.374c7.886,0,15.083-2.031,20.125-5.396
	c1.878-1.253,4.353-1.12,6.026,0.396l0.136,0.123c2.562,2.323,1.939,6.487-1.177,7.987c-2.084,1.004-4.444,1.873-7.07,2.608
	c-5.504,1.613-11.513,2.419-18.039,2.419c-6.676,0-12.761-0.806-18.33-2.494c-2.665-0.772-5.047-1.678-7.135-2.711
	c-3.113-1.54-3.739-5.707-1.2-8.077l0,0c1.689-1.577,4.265-1.807,6.159-0.483C24.507,67.257,31.88,69.374,39.995,69.374
	L39.995,69.374z M39.995,69.374"/>
</svg>
