<?xml version="1.0" encoding="iso-8859-1"?>
<!-- Generator: Adobe Illustrator 21.0.0, SVG Export Plug-In . SVG Version: 6.00 Build 0)  -->
<svg version="1.1" id="&#x56FE;&#x5C42;_1" xmlns="http://www.w3.org/2000/svg" xmlns:xlink="http://www.w3.org/1999/xlink" x="0px"
	 y="0px" viewBox="0 0 80 80" style="enable-background:new 0 0 80 80;" xml:space="preserve">
<g>
	<path style="fill:#FDA203;" d="M70.794,26.575v6.847c0,7.881-2.631,14.728-7.881,20.552c-5.262,5.835-11.76,9.174-19.495,10.017
		v7.049H57.1c0.922,0,1.731,0.338,2.406,1.012c0.674,0.674,1.012,1.473,1.012,2.406c0,0.922-0.338,1.731-1.012,2.406
		c-0.675,0.675-1.484,1.012-2.406,1.012H22.889c-0.922,0-1.731-0.337-2.406-1.012c-0.674-0.675-1.012-1.484-1.012-2.406
		c0-0.922,0.338-1.732,1.012-2.406c0.675-0.675,1.473-1.012,2.406-1.012h13.682V63.99c-7.735-0.854-14.233-4.194-19.484-10.028
		c-5.261-5.823-7.881-12.682-7.881-20.563v-6.847c0-0.922,0.337-1.732,1.012-2.406c0.675-0.674,1.473-1.012,2.406-1.012
		c0.922,0,1.732,0.338,2.406,1.012c0.674,0.675,1.012,1.484,1.012,2.406v6.847c0,6.589,2.338,12.233,7.027,16.921
		c4.688,4.688,10.32,7.038,16.92,7.038c6.589,0,12.232-2.339,16.921-7.027c4.699-4.688,7.038-10.309,7.038-16.92v-6.847
		c0-0.922,0.338-1.732,1.012-2.406c0.675-0.675,1.473-1.012,2.406-1.012c0.922,0,1.731,0.337,2.406,1.012
		C70.457,24.843,70.794,25.641,70.794,26.575L70.794,26.575z"/>
	<path style="fill:#FDA203;" d="M57.111,19.237V33.41c0,4.7-1.675,8.736-5.025,12.086c-3.35,3.35-7.375,5.025-12.086,5.025
		c-4.711,0-8.736-1.675-12.086-5.025c-3.35-3.35-5.026-7.364-5.026-12.086V19.237c0-4.7,1.675-8.736,5.026-12.086
		C31.265,3.8,35.29,2.125,40,2.125c4.711,0,8.736,1.675,12.086,5.026C55.425,10.501,57.111,14.525,57.111,19.237L57.111,19.237z"/>
</g>
</svg>
