<?xml version="1.0" encoding="iso-8859-1"?>
<!-- Generator: Adobe Illustrator 21.0.0, SVG Export Plug-In . SVG Version: 6.00 Build 0)  -->
<svg version="1.1" id="&#x56FE;&#x5C42;_1" xmlns="http://www.w3.org/2000/svg" xmlns:xlink="http://www.w3.org/1999/xlink" x="0px"
	 y="0px" viewBox="0 0 80 80" style="enable-background:new 0 0 80 80;" xml:space="preserve">
<g>
	<path style="fill:#FDA203;" d="M76.109,8.442c-1.274-1.81-3.773-2.248-5.584-0.972c-0.073,0.051-3.36,2.363-8.409,5.922
		c-1.91-1.912-4.077-3.566-6.492-4.972c-4.666-2.715-9.749-4.042-15.251-4.042c-5.494,0-10.649,1.327-15.314,4.042
		c-4.666,2.716-8.351,6.339-11.067,11.005c-2.715,4.666-4.104,9.678-4.104,15.181c0,4.875,1.096,9.365,3.234,13.571
		c-9.956,7.171-9.96,7.3-9.96,9.462c0,2.214,1.794,4.008,4.008,4.008c1.162,0,2.209-0.494,2.941-1.285
		c2.355-1.958,20.727-15.051,39.934-28.636l0.086-0.061l0,0c1.756-1.242,3.519-2.488,5.277-3.73c0,0.001,0.001,0.002,0.001,0.003
		l7.934-5.604c4.113-2.901,8.099-5.708,11.795-8.308C76.947,12.752,77.382,10.252,76.109,8.442z M28.745,23.128
		c3.205-3.205,7.105-4.808,11.628-4.808c3.778,0,7.115,1.135,9.982,3.372c-1.776,1.255-3.607,2.549-5.47,3.867
		c-1.369-0.694-2.865-1.042-4.512-1.042c-2.787,0-5.155,0.979-7.176,2.991c-2.021,1.95-2.992,4.318-2.992,7.105
		c0,0.443,0.034,0.871,0.083,1.293c-1.943,1.381-3.792,2.697-5.522,3.929c-0.542-1.625-0.829-3.361-0.829-5.222
		C23.937,30.09,25.54,26.262,28.745,23.128z M11.049,58.647c0.041-0.157,0.072-0.318,0.093-0.481
		C11.12,58.334,11.088,58.495,11.049,58.647z"/>
	<path style="fill:#FDA203;" d="M47.549,41.718c1.986-1.924,2.961-4.257,2.987-6.996l-13.279,9.453
		c0.977,0.305,2.013,0.464,3.116,0.464C43.16,44.639,45.528,43.668,47.549,41.718z"/>
	<path style="fill:#FDA203;" d="M65.206,63.147c-1.588-1.44-3.939-1.566-5.722-0.376c-4.788,3.196-11.622,5.124-19.111,5.124
		c-7.707,0-14.708-2.01-19.473-5.343c-1.798-1.258-4.244-1.04-5.849,0.458h0c-2.411,2.251-1.816,6.208,1.14,7.67
		c1.983,0.981,4.244,1.842,6.775,2.575c5.288,1.603,11.067,2.368,17.406,2.368c6.197,0,11.904-0.766,17.13-2.297
		c2.493-0.698,4.734-1.524,6.714-2.477c2.959-1.425,3.551-5.379,1.118-7.585L65.206,63.147z"/>
	<path style="fill:#FDA203;" d="M56.324,30.601c0.31,1.273,0.484,2.605,0.484,4.012c0,4.523-1.603,8.351-4.808,11.485
		c-3.205,3.134-7.105,4.737-11.627,4.737c-3.307,0-6.276-0.866-8.889-2.551l-11.898,8.469c1.647,1.517,3.463,2.866,5.472,4.036
		c4.665,2.716,9.812,4.042,15.314,4.042c5.502,0,10.586-1.326,15.251-4.042c4.665-2.715,8.423-6.33,11.138-11.005
		c2.716-4.665,4.105-9.678,4.105-15.18c0-4.441-0.92-8.558-2.697-12.436L56.324,30.601z"/>
</g>
</svg>
